<svg xmlns="http://www.w3.org/2000/svg" viewBox="0 0 400 88.13">
  <defs>
    <style>
      .cls-1 {
        fill: #999;
      }

      .cls-2 {
        fill: #ececec;
      }
    </style>
  </defs>
  <title>monada_b</title>
  <g id="Layer_2" data-name="Layer 2">
    <g id="Layer_1-2" data-name="Layer 1">
      <g>
        <polygon class="cls-1" points="126.39 24.97 114.91 36.45 135.01 56.55 114.86 76.71 94.7 56.55 114.8 36.45 103.32 24.97 84.62 24.97 84.62 88.13 145.09 88.13 145.09 24.97 126.39 24.97"/>
        <rect class="cls-2" x="107.52" y="3.04" width="14.67" height="14.67" transform="translate(188.74 98.92) rotate(-135)"/>
        <polygon class="cls-2" points="191.1 24.97 153.15 24.97 153.15 87.78 153.15 88.13 173.42 88.13 173.58 88.13 173.31 88.13 173.31 67.62 173.31 45.13 182.87 45.13 189.44 51.73 189.44 67.62 189.44 88.13 208.25 88.13 208.25 43.31 191.1 24.97"/>
        <path class="cls-2" d="M216.73,88.13V43.63l17.8-17.71h37.71V88.13h-20.1V73.3H236.83V88.13Zm20.1-34.93h15.31V46h-9.38l-5.93,6Z"/>
        <path class="cls-2" d="M280.61,88.13V25.92h37.61l17.9,17.81v44.4Zm35.41-36L310,46h-9.28V68H316Z"/>
        <path class="cls-2" d="M344.49,88.13V43.63l17.8-17.71H400V88.13H379.9V73.3H364.59V88.13Zm20.1-34.93H379.9V46h-9.38l-5.93,6Z"/>
        <path class="cls-2" d="M56.47,88.13V46H48.33V88.13H28.23V46H20.1V88.13H0V25.92H76.56V88.13Z"/>
      </g>
    </g>
  </g>
</svg>
